# xmcd
#
# Track frame offsets: 
#        150
#        46203
#        77800
#        91601
#        124263
#        175533
#        192876
#        206696
#
# Disc length: 2842 seconds
#
# Revision: 1
# Processed by: cddbd v1.5.2PL0 Copyright (c) Steve Scherf et al.
# Submitted via: ExactAudioCopy v0.99pb4
#
DISCID=5d0b1808
DTITLE=Dredd Foole - Kissing The Contemporary Bliss [CD1]
DYEAR=2004
DGENRE=Avantgarde
TTITLE0=Dog Star Waltz
TTITLE1=Above Ground Friend
TTITLE2=I Wuz Born
TTITLE3=Lay Lady Lay (Be)
TTITLE4=Walk Right In
TTITLE5=Lips
TTITLE6=Once I Was Not
TTITLE7=Rage Moderne #1
EXTD=
EXTT0=
EXTT1=
EXTT2=
EXTT3=
EXTT4=
EXTT5=
EXTT6=
EXTT7=
PLAYORDER=
